<svg width="280" height="140" viewBox="0 0 280 140" fill="none" xmlns="http://www.w3.org/2000/svg">
  <rect width="280" height="140" rx="30" fill="transparent"/>
  <path d="M74 26C45.2812 26 22 49.2812 22 78C22 106.719 45.2812 130 74 130H101.5V102H74C60.7452 102 50 91.2548 50 78C50 64.7452 60.7452 54 74 54C82.7649 54 90.6075 58.7147 94.8076 65.8211L113.776 97.9232C123.166 113.809 140.317 124 159.848 124H170V96H159.848C150.27 96 141.857 91.0023 137.251 83.2093L118.283 51.1072C109.016 35.4291 92.1112 26 74 26Z" fill="#11C7BD"/>
  <path d="M206 10H178V64.2L152.55 39.6L133 58.5L178 102V130H206V10Z" fill="#11C7BD"/>
  <path d="M177 26H206C234.719 26 258 49.2812 258 78C258 106.719 234.719 130 206 130H196V102H206C219.255 102 230 91.2548 230 78C230 64.7452 219.255 54 206 54H177V26Z" fill="#11C7BD"/>
</svg>
